<?xml version="1.0" standalone="no"?>
<!DOCTYPE svg PUBLIC "-//W3C//DTD SVG 1.1//EN" "http://www.w3.org/Graphics/SVG/1.1/DTD/svg11.dtd" >
<svg xmlns="http://www.w3.org/2000/svg">
<metadata></metadata>
<defs>
<font id="cibreoregular" horiz-adv-x="925" >
<font-face units-per-em="2048" ascent="1638" descent="-410" />
<missing-glyph horiz-adv-x="575" />
<glyph horiz-adv-x="0" />
<glyph horiz-adv-x="682" />
<glyph unicode=" "  horiz-adv-x="575" />
<glyph unicode="&#x09;" horiz-adv-x="575" />
<glyph unicode="&#xa0;" horiz-adv-x="575" />
<glyph unicode="!" horiz-adv-x="317" d="M68 0v221h182v-221h-182zM76 360v1012h166v-1012h-166z" />
<glyph unicode="&#x22;" horiz-adv-x="622" d="M82 1081v359h182v-359h-182zM358 1081v359h181v-359h-181z" />
<glyph unicode="#" horiz-adv-x="952" d="M39 418v153h162l39 242h-162v154h188l64 405h168l-66 -405h150l63 405h168l-65 -405h165v-154h-192l-39 -242h190v-153h-213l-67 -418h-168l68 418h-148l-68 -418h-165l65 418h-137zM367 571h149l39 242h-147z" />
<glyph unicode="$" horiz-adv-x="1042" d="M39 291l168 20q25 -78 88 -121q49 -33 147 -40v471q-188 12 -282 108q-106 113 -107 272q0 164 125 275q102 92 264 108v144h166v-146q127 -14 215 -73q121 -80 154 -228l-170 -18q-25 78 -111 119q-43 23 -88 32v-436q174 -18 273 -108q123 -111 123 -287 q0 -195 -125 -297q-100 -82 -271 -98v-146h-166v144q-172 12 -262 77q-111 82 -141 228zM221 1001q0 -82 72 -151q51 -49 149 -64v433q-86 -15 -141 -62q-80 -68 -80 -156zM608 156q66 14 127 49q100 59 101 178q0 121 -105 178q-59 31 -123 45v-450z" />
<glyph unicode="%" horiz-adv-x="1202" d="M63 852v328q0 98 59.5 154.5t158.5 56.5q94 -2 154.5 -59.5t60.5 -151.5v-320q0 -98 -58.5 -154.5t-156.5 -56.5q-102 2 -160 60.5t-58 142.5zM186 0l658 1391h168l-656 -1391h-170zM197 854q0 -27 21.5 -48.5t62.5 -19.5q45 0 63 22.5t18 53.5v318q-8 72 -81 73 q-74 -2 -84 -73v-326zM707 203v327q0 98 59 154.5t158 56.5q94 -2 154.5 -59t60.5 -152v-319q0 -98 -58.5 -154.5t-156.5 -56.5q-102 2 -159.5 60.5t-57.5 142.5zM840 205q0 -27 21.5 -48.5t62.5 -19.5q45 0 63.5 22.5t18.5 53.5v317q-8 72 -82 74q-74 -2 -84 -74v-325z" />
<glyph unicode="&#x26;" horiz-adv-x="1017" d="M49 334v141q0 162 103 256l16 12q-8 6 -16 15q-102 94 -103 256v22q0 162 103.5 256t275.5 94q127 0 217 -53l-90 -139q-51 31 -127 31q-98 0 -155.5 -50.5t-57.5 -138.5v-22q0 -88 57 -140q51 -45 138 -49h233v160h166v-160h160v-161h-160v-330q0 -164 -103.5 -257 t-277.5 -93q-172 0 -275.5 94t-103.5 256zM215 334q0 -88 57.5 -138.5t155.5 -50.5t156.5 50.5t58.5 138.5v330h-215q-98 0 -155.5 -50.5t-57.5 -138.5v-141z" />
<glyph unicode="'" horiz-adv-x="319" d="M70 956v113q41 18 54 41t13 66v45h-67v219h180v-199q0 -57 -6 -103t-25.5 -81t-55.5 -59.5t-93 -41.5z" />
<glyph unicode="(" horiz-adv-x="444" d="M41 600v113q0 31 2 94t11 144t24.5 174.5t42 183.5t65.5 172t93 139l122 -111q-43 -37 -74.5 -106.5t-53 -153.5t-35 -173t-20.5 -164.5t-9 -130t-2 -68.5v-113q0 -16 2 -70.5t9 -130t20.5 -165t35 -172t53 -152.5t74.5 -107l-122 -110q-55 57 -93.5 139t-65 173 t-42 184.5t-24.5 174t-11 144t-2 92.5z" />
<glyph unicode=")" horiz-adv-x="444" d="M41 -197q43 37 74.5 107t53 152.5t35 172t20.5 165t9.5 130t2.5 70.5v113q0 14 -2.5 68.5t-9.5 130t-20.5 164.5t-35 173t-53 154t-74.5 106l123 111q53 -57 92 -139t65.5 -172t42 -183.5t24.5 -174.5t11 -144.5t2 -93.5v-113q0 -29 -2 -92.5t-11 -144t-24.5 -174 t-42 -184.5t-65.5 -173t-92 -139z" />
<glyph unicode="*" horiz-adv-x="782" d="M39 608l82 140l190 -111v221h162v-221l191 111l77 -142l-188 -108l190 -111l-79 -139l-191 110v-221h-162v221l-190 -110l-80 141l190 111z" />
<glyph unicode="+" horiz-adv-x="792" d="M16 418v160h308v296h163v-296h289v-160h-289v-297h-163v297h-308z" />
<glyph unicode="," horiz-adv-x="319" d="M70 0v221h180v-198q0 -57 -6 -103.5t-25.5 -82.5t-55.5 -60.5t-93 -40.5v112q41 20 54 42t13 67v43h-67z" />
<glyph unicode="-" d="M82 418v160h760v-160h-760z" />
<glyph unicode="." horiz-adv-x="350" d="M84 0v221h180v-221h-180z" />
<glyph unicode="/" horiz-adv-x="956" d="M6 -168l758 1733h184l-758 -1733h-184z" />
<glyph unicode="0" horiz-adv-x="901" d="M70 334v487q0 162 103 256t276 94q174 0 277 -95t103 -255v-487q0 -164 -103 -257t-277 -93q-172 0 -275.5 94t-103.5 256zM236 334q0 -88 57 -138.5t156 -50.5q98 0 156.5 50.5t58.5 138.5v487q0 86 -58.5 137.5t-156.5 51.5t-155.5 -50.5t-57.5 -138.5v-487z" />
<glyph unicode="1" horiz-adv-x="509" d="M43 893l268 268h154v-1161h-166v922l-143 -144z" />
<glyph unicode="2" horiz-adv-x="890" d="M66 0v162l542 432q51 51 51 137v88q-2 90 -59 140.5t-156 50.5q-98 0 -155 -52q-47 -41 -56 -108l-159 55q20 102 94 170q102 94 276 94t276.5 -93t104.5 -257v-88q0 -164 -102 -258l-395 -311h497v-162h-759z" />
<glyph unicode="3" horiz-adv-x="911" d="M57 55l164 31q14 -57 64 -92q70 -51 168 -51q119 0 175 50t58 138v96q-2 90 -58.5 140.5t-174.5 50.5h-152v160h152q117 0 165 50t50 140v51q-2 70 -60.5 130.5t-154.5 60.5q-98 0 -158 -62q-45 -47 -55 -100l-160 55q20 90 84 162q94 104 289 104q174 0 275 -103 t103 -247v-51q-2 -86 -36.5 -153.5t-87.5 -114.5q59 -47 101 -116t44 -157v-96q-2 -162 -103.5 -256t-295.5 -94q-195 0 -299 94q-78 72 -97 180z" />
<glyph unicode="4" horiz-adv-x="819" d="M29 0v143l391 1016h174l-383 -997h305v213h166v-213h106v-162h-106v-193h-166v193h-487z" />
<glyph unicode="5" horiz-adv-x="897" d="M63 53l162 43q39 -150 228 -149q98 0 155.5 50t59.5 138v236q-2 88 -59.5 138t-155.5 50q-86 0 -143.5 -45t-69.5 -123h-166v768h721v-162h-555v-376q47 63 100 81.5t113 18.5q174 0 276 -94.5t105 -255.5v-236q-2 -162 -104.5 -256t-276.5 -94q-326 0 -390 268z" />
<glyph unicode="6" horiz-adv-x="854" d="M47 334v176q0 125 68 215q12 18 39.5 54t62.5 81t76 96.5t82 102.5q96 119 209 258h202l-372 -457q186 0 288.5 -93t104.5 -257v-176q-2 -162 -104.5 -256t-276.5 -94q-172 0 -275.5 94t-103.5 256zM213 334q0 -88 57.5 -138.5t155.5 -50.5t155.5 50.5t59.5 138.5v176 q-2 90 -59.5 140t-155.5 50t-155.5 -50t-57.5 -140v-176z" />
<glyph unicode="7" horiz-adv-x="837" d="M39 864v293h760v-143l-467 -1215h-174l458 1196h-411v-131h-166z" />
<glyph unicode="8" horiz-adv-x="886" d="M63 334v96q0 88 42 156.5t102 115.5q-51 47 -87 115t-36 154v51q0 164 93 257t267 93t265.5 -93t93.5 -257v-51q-2 -86 -38 -153.5t-87 -115.5q59 -47 101 -115.5t44 -156.5v-96q-2 -162 -103.5 -256t-275.5 -94t-277.5 94t-103.5 256zM229 334q0 -88 58.5 -138.5 t156.5 -50.5t154.5 50.5t58.5 138.5v96q-2 90 -58 140.5t-155 50.5q-104 -4 -159.5 -54.5t-55.5 -136.5v-96zM248 971q0 -90 49 -140.5t147 -50.5q96 0 144.5 50.5t50.5 140.5v51q-2 90 -50 140t-145 50q-98 0 -147 -50t-49 -140v-51z" />
<glyph unicode="9" horiz-adv-x="854" d="M47 641v176q2 162 104.5 256t276.5 94q172 0 275.5 -94t103.5 -256v-176q0 -125 -68 -215q-12 -18 -39.5 -54t-62.5 -81t-76 -96.5t-82 -102.5q-96 -119 -209 -258h-202l372 457q-186 0 -288.5 93t-104.5 257zM213 641q2 -90 59.5 -140t155.5 -50t155.5 50t57.5 140v176 q0 88 -57.5 138.5t-155.5 50.5t-155.5 -50.5t-59.5 -138.5v-176z" />
<glyph unicode=":" horiz-adv-x="284" d="M51 0v221h180v-221h-180zM51 776v221h180v-221h-180z" />
<glyph unicode=";" horiz-adv-x="319" d="M68 0v221h182v-198q0 -57 -7 -103.5t-26.5 -82.5t-55.5 -60.5t-93 -40.5v112q41 20 54 42t13 67v43h-67zM68 776v221h182v-221h-182z" />
<glyph unicode="&#x3c;" horiz-adv-x="618" d="M33 430v133l551 305v-188l-353 -182l353 -185v-186z" />
<glyph unicode="=" horiz-adv-x="897" d="M68 295v162h759v-162h-759zM68 539v161h759v-161h-759z" />
<glyph unicode="&#x3e;" horiz-adv-x="638" d="M43 127v186l352 185l-352 182v188l551 -305v-133z" />
<glyph unicode="?" horiz-adv-x="917" d="M29 1112q41 123 145.5 191.5t271.5 68.5q213 0 327 -100.5t114 -276.5v-22q0 -66 -15.5 -111t-41 -76.5t-68.5 -53t-78 -42.5q-29 -16 -54.5 -32.5t-47.5 -36.5q-43 -41 -50.5 -90.5t-7.5 -114.5v-54h-164v35q0 59 4.5 107.5t14.5 90.5t31.5 77t56.5 67q10 10 29.5 22.5 t40.5 22.5q27 14 65.5 33t63 41.5t40 50t15.5 64.5v22q0 102 -79 159.5t-196 57.5q-113 0 -175 -41t-87 -114zM352 0v221h180v-221h-180z" />
<glyph unicode="@" horiz-adv-x="1163" d="M63 461v448q0 221 141.5 349t375.5 128q238 0 378 -128t140 -349v-260q0 -164 -103.5 -257t-277.5 -93q-172 0 -275.5 94t-103.5 264q0 162 103.5 256.5t275.5 94.5q125 0 213 -50q-14 115 -94 185q-96 82 -258 82q-158 0 -253.5 -82t-95.5 -228v-460q0 -145 95.5 -227.5 t253.5 -82.5q162 0 256 82q6 4 12 11l153 -82q-20 -23 -43 -45q-139 -127 -376 -127q-233 0 -375 128t-142 349zM504 657q0 -96 57 -146t156 -50q98 0 156.5 50t58.5 138v21q-4 78 -60 125q-57 51 -155 51t-155.5 -50.5t-57.5 -138.5z" />
<glyph unicode="A" horiz-adv-x="1085" d="M33 0l430 1372h160l430 -1372h-176l-103 317h-463l-102 -317h-176zM365 481h356l-178 617z" />
<glyph unicode="B" horiz-adv-x="1122" d="M74 0v1372h536q201 0 312.5 -97t111.5 -271q0 -94 -34.5 -168t-94.5 -121q70 -51 107 -126t37 -173v-35q0 -178 -114 -279.5t-308 -101.5h-553zM242 164h385q117 0 186.5 56t69.5 161v35q0 98 -67.5 158.5t-178.5 60.5h-395v-471zM242 799h381q115 0 179 52t64 153 q0 102 -69.5 154t-186.5 52h-368v-411z" />
<glyph unicode="C" horiz-adv-x="1087" d="M57 461v448q0 221 141.5 349t329.5 128q238 0 377 -129q90 -82 123 -202l-160 -43q-23 78 -84 131q-96 82 -258 82q-113 0 -208 -82t-95 -228v-460q0 -145 95.5 -227.5t207.5 -82.5q162 0 256 82q63 53 86 135l160 -43q-33 -125 -123 -208q-139 -127 -377 -127 q-188 0 -329.5 128t-141.5 349z" />
<glyph unicode="D" horiz-adv-x="1122" d="M74 0v1372h456q238 0 378.5 -128t140.5 -349v-418q0 -221 -140.5 -349t-378.5 -128h-456zM240 162h288q162 0 258.5 82t96.5 227v430q0 145 -96.5 227t-258.5 82h-288v-1048z" />
<glyph unicode="E" horiz-adv-x="944" d="M61 0v1372h820v-162h-654v-434h484v-162h-484v-452h654v-162h-820z" />
<glyph unicode="F" horiz-adv-x="956" d="M84 0v1372h819v-162h-653v-452h532v-162h-532v-596h-166z" />
<glyph unicode="G" horiz-adv-x="1138" d="M80 461v448q0 221 141 349t338 128q213 0 352 -129q90 -82 123 -202l-160 -43q-20 86 -101 149.5t-222 63.5q-115 0 -210 -82t-95 -228v-460q0 -145 95 -227.5t218 -82.5q135 0 230.5 82t97.5 228v131h-355v151h521v-276q-2 -221 -141.5 -349t-352.5 -128 q-197 0 -338 128t-141 349z" />
<glyph unicode="H" horiz-adv-x="1138" d="M82 0v1372h166v-594h641v594h166v-1372h-166v614h-641v-614h-166z" />
<glyph unicode="I" horiz-adv-x="337" d="M86 0v1372h166v-1372h-166z" />
<glyph unicode="J" horiz-adv-x="892" d="M41 162l149 78q61 -92 209 -93q125 0 183.5 50.5t60.5 140.5v1034h166v-1034q-2 -166 -105.5 -260t-304.5 -94q-129 0 -217 46t-141 132z" />
<glyph unicode="K" horiz-adv-x="1087" d="M82 0v1372h166v-616l446 616h219l-467 -635l576 -737h-225l-463 612l-86 -114v-498h-166z" />
<glyph unicode="L" horiz-adv-x="974" d="M82 0v1372h166v-1210h653v-162h-819z" />
<glyph unicode="M" horiz-adv-x="1292" d="M82 0v1372h160l403 -860l404 860h159v-1372h-166v985l-321 -704h-152l-321 704v-985h-166z" />
<glyph unicode="N" horiz-adv-x="1189" d="M82 0v1372h158l698 -1036v1036h168v-1372h-160l-698 1040v-1040h-166z" />
<glyph unicode="O" horiz-adv-x="1110" d="M68 461v448q0 221 141 349t344 128q209 0 349 -128t140 -349v-448q-2 -221 -141 -349t-348 -128q-203 0 -344 128t-141 349zM233 455q0 -145 95.5 -227.5t222.5 -82.5q133 0 228 82t98 228v460q0 145 -96.5 227.5t-229.5 82.5q-127 0 -222.5 -82t-95.5 -228v-460z" />
<glyph unicode="P" horiz-adv-x="1132" d="M86 0v1372h551q195 0 308.5 -101.5t113.5 -279.5v-73q0 -178 -114 -280.5t-308 -102.5h-383v-535h-168zM254 698h383q117 0 186.5 58.5t69.5 161.5v73q0 104 -70.5 161.5t-185.5 57.5h-383v-512z" />
<glyph unicode="Q" horiz-adv-x="1144" d="M82 461v448q0 221 141.5 349t343.5 128q209 0 349.5 -128t140.5 -349v-448q-2 -221 -142 -350q-12 -10 -26 -21q61 -113 127 -133q20 -6 59 -5t88 7q68 10 120 10q57 0 95 -12q35 -10 63.5 -23.5t47.5 -33.5q49 -49 110 -162l-139 -76q-61 115 -127 133q-20 6 -59 5 t-88 -5q-72 -10 -127 -10t-90 10q-74 20 -115 62q-20 20 -47 59t-57 96q-81 -28 -176 -28h-7q-203 0 -344 128t-141 349zM248 455q0 -145 95 -227.5t222 -82.5q59 0 113 17l-45 94l153 66l31 -72q72 80 74 205v460q0 145 -96.5 227.5t-229.5 82.5q-127 0 -222 -82t-95 -228 v-460z" />
<glyph unicode="R" horiz-adv-x="1146" d="M82 0v1372h549q195 0 309.5 -101.5t114.5 -279.5v-73q0 -133 -62.5 -223.5t-179.5 -131.5q68 -137 139.5 -282.5t139.5 -280.5h-185l-266 535h-391v-535h-168zM250 698h381q117 0 186.5 58.5t69.5 161.5v73q0 104 -69.5 161.5t-186.5 57.5h-381v-512z" />
<glyph unicode="S" horiz-adv-x="1079" d="M57 291l168 20q25 -78 89.5 -121t222.5 -43h17q118 1 209 51q97 54 97 185q0 162 -392 230.5t-396 387.5q0 164 126 276t339 112q186 0 306 -80t152 -228l-170 -18q-25 78 -109.5 120t-178.5 42q-137 0 -217 -67.5t-80 -156.5v-14q0 -99 80 -145q86 -48 229 -70 q188 -35 326.5 -111.5t146.5 -277.5q0 -195 -125 -297t-360 -102q-227 0 -338 80.5t-142 226.5z" />
<glyph unicode="T" horiz-adv-x="1021" d="M25 1210v162h972v-162h-403v-1210h-166v1210h-403z" />
<glyph unicode="U" horiz-adv-x="1138" d="M82 461v911h166v-913q0 -150 95 -232t222 -82q131 0 226.5 82t97.5 232v913h166v-911q-2 -221 -141.5 -349t-346.5 -128q-203 0 -344 128t-141 349z" />
<glyph unicode="V" horiz-adv-x="1085" d="M31 1372h172l340 -1098l340 1098h172l-451 -1372h-123z" />
<glyph unicode="W" horiz-adv-x="1732" d="M53 1372h176l283 -1077l262 1077h184l263 -1081l282 1081h176l-364 -1372h-189l-260 1059l-260 -1059h-188z" />
<glyph unicode="X" horiz-adv-x="1150" d="M66 0l428 688l-426 684h192l315 -555l316 555h192l-428 -684l430 -688h-192l-318 555l-317 -555h-192z" />
<glyph unicode="Y" horiz-adv-x="1073" d="M27 1372h192l318 -579l317 579h193l-429 -745v-627h-163v627z" />
<glyph unicode="Z" horiz-adv-x="1073" d="M76 0l639 1210h-639v162h919l-637 -1208h588v-164h-870z" />
<glyph unicode="[" horiz-adv-x="491" d="M59 -203v1766h373v-166h-207v-1434h207v-166h-373z" />
<glyph unicode="\" horiz-adv-x="956" d="M6 1565h184l758 -1733h-184z" />
<glyph unicode="]" horiz-adv-x="495" d="M61 -37h209v1434h-209v166h373v-1766h-373v166z" />
<glyph unicode="^" horiz-adv-x="909" d="M35 752l344 639h153l342 -639h-169l-248 460l-250 -460h-172z" />
<glyph unicode="_" horiz-adv-x="999" d="M82 -117h833v-157h-833v157z" />
<glyph unicode="`" horiz-adv-x="458" d="M27 1411h206l199 -340h-182z" />
<glyph unicode="a" horiz-adv-x="903" d="M68 315q0 154 103 242t278 88q61 0 116.5 -18.5t96.5 -53.5v91q0 88 -57.5 138t-155.5 50q-82 0 -138.5 -40t-72.5 -114l-166 21q27 139 125 217t252 78q172 0 275 -94.5t103 -255.5v-664h-165v61q-35 -39 -94.5 -58t-118.5 -19q-174 0 -277.5 89t-103.5 242zM233 315 q0 -78 58.5 -124t157.5 -46q98 0 155.5 46t57.5 124q-4 82 -61.5 125t-151.5 43q-98 0 -157 -45t-59 -123z" />
<glyph unicode="b" horiz-adv-x="927" d="M86 0v1372h166v-457q33 39 93.5 69t139.5 30q164 0 262.5 -89t98.5 -261v-330q-2 -162 -94.5 -256t-266.5 -94q-61 0 -126.5 25.5t-106.5 76.5v-86h-166zM252 334q0 -88 57.5 -138.5t155.5 -50.5t155.5 50.5t59.5 138.5v330q-2 88 -59.5 138t-155.5 50q-94 0 -152.5 -47 t-60.5 -131v-340z" />
<glyph unicode="c" horiz-adv-x="872" d="M57 334v330q0 162 103.5 256t275.5 94q154 0 252 -78t125 -217l-166 -21q-16 74 -72.5 114t-138.5 40q-98 0 -155.5 -50t-57.5 -138v-330q0 -88 57.5 -138.5t155.5 -50.5q82 0 138.5 40t72.5 114l166 -20q-27 -139 -125 -217t-252 -78q-172 0 -275.5 94t-103.5 256z" />
<glyph unicode="d" horiz-adv-x="927" d="M84 334v330q0 172 98.5 261t261.5 89q80 0 140.5 -30t93.5 -69v457h166v-1372h-166v86q-41 -51 -106.5 -76.5t-127.5 -25.5q-174 0 -266 94t-94 256zM250 334q2 -88 59.5 -138.5t155.5 -50.5t155.5 50.5t57.5 138.5v340q-2 84 -60.5 131t-152.5 47q-98 0 -155.5 -50 t-59.5 -138v-330z" />
<glyph unicode="e" horiz-adv-x="931" d="M88 334v330q0 162 103.5 256t275.5 94q174 0 276.5 -94.5t104.5 -255.5v-215h-594v-115q0 -88 57.5 -138.5t155.5 -50.5q82 0 138.5 40t72.5 114l166 -20q-27 -139 -125 -217t-252 -78q-172 0 -275.5 94t-103.5 256zM254 596h428v68q-2 88 -59.5 138t-155.5 50 t-155.5 -50t-57.5 -138v-68z" />
<glyph unicode="f" horiz-adv-x="595" d="M31 836v161h92v43q0 156 89 244t241 88h112v-162h-112q-76 0 -121 -46t-45 -124v-43h278v-161h-278v-836h-164v836h-92z" />
<glyph unicode="g" horiz-adv-x="931" d="M88 334v330q0 162 103.5 256t257.5 94q59 0 125.5 -23.5t107.5 -77.5v84h166v-1009q-2 -162 -103.5 -256t-275.5 -94q-111 0 -199 45t-141 131l147 75q66 -90 193 -90q96 0 154.5 50.5t58.5 138.5v73q-43 -35 -96.5 -56t-116.5 -21q-174 0 -277.5 94t-103.5 256zM254 334 q0 -88 58.5 -138.5t156.5 -50.5q94 0 151.5 47.5t61.5 131.5v350q-4 84 -61.5 131t-151.5 47q-98 0 -156.5 -50t-58.5 -138v-330z" />
<glyph unicode="h" horiz-adv-x="927" d="M84 0v1372h166v-459q41 53 107.5 77t125.5 24q174 0 267.5 -94.5t93.5 -255.5v-664h-166v664q0 88 -58.5 138t-156.5 50q-94 0 -152.5 -47t-60.5 -131v-674h-166z" />
<glyph unicode="i" horiz-adv-x="335" d="M76 1190v182h182v-182h-182zM84 0v997h166v-997h-166z" />
<glyph unicode="j" horiz-adv-x="356" d="M-78 -203q86 0 135 46t49 124v1030h166v-1030q0 -156 -95 -244t-255 -88v162zM98 1190v182h183v-182h-183z" />
<glyph unicode="k" horiz-adv-x="892" d="M45 0v1372h166v-821l399 446h217l-434 -485q403 -455 455 -512h-223l-344 383l-70 -78v-305h-166z" />
<glyph unicode="l" horiz-adv-x="503" d="M82 276v1096h166v-1096q0 -53 24.5 -92t89.5 -39h66v-161h-66q-131 0 -205.5 77.5t-74.5 214.5z" />
<glyph unicode="m" horiz-adv-x="1318" d="M80 0v997h166v-67q39 43 83 63.5t101 20.5q80 0 143.5 -30t104.5 -79q41 49 103.5 79t144.5 30q152 0 232 -88q78 -86 77 -236v-8v-682h-164v682q0 78 -45 124t-121 46t-120 -46t-44 -124v-682h-166v682q0 78 -45 124t-120 46q-74 0 -118 -44t-46 -118v-690h-166z" />
<glyph unicode="n" horiz-adv-x="923" d="M84 0v997h166v-82q43 49 108.5 74t124.5 25q168 0 264.5 -94.5t96.5 -255.5v-664h-166v664q0 88 -58.5 138t-156.5 50q-94 0 -152.5 -47t-60.5 -131v-674h-166z" />
<glyph unicode="o" horiz-adv-x="923" d="M82 334v330q0 162 103.5 256t275.5 94q174 0 277.5 -95.5t103.5 -254.5v-330q0 -164 -103.5 -257t-277.5 -93q-172 0 -275.5 94t-103.5 256zM248 334q0 -88 57 -138.5t156 -50.5q98 0 156.5 50.5t58.5 138.5v330q0 86 -58.5 137t-156.5 51t-155.5 -50t-57.5 -138v-330z " />
<glyph unicode="p" horiz-adv-x="929" d="M88 -375v1372h166v-86q41 51 106.5 77t126.5 26q174 0 266.5 -94.5t94.5 -255.5v-330q0 -172 -98.5 -261t-262.5 -89q-80 0 -140 29.5t-93 68.5v-457h-166zM254 324q2 -84 60.5 -131.5t152.5 -47.5q98 0 155.5 50.5t59.5 138.5v330q-2 88 -59.5 138t-155.5 50t-155.5 -50 t-57.5 -138v-340z" />
<glyph unicode="q" horiz-adv-x="927" d="M84 334v330q2 162 94 256t266 94q61 0 127 -25.5t107 -77.5v86h166v-1372h-166v457q-33 -39 -93.5 -68.5t-140.5 -29.5q-164 0 -262 89t-98 261zM250 334q2 -88 59.5 -138.5t155.5 -50.5q94 0 152.5 47.5t60.5 131.5v340q0 88 -57.5 138t-155.5 50t-155.5 -50t-59.5 -138 v-330z" />
<glyph unicode="r" horiz-adv-x="735" d="M84 0v997h166v-79q39 53 97.5 74.5t137.5 21.5q43 0 101.5 -14.5t109.5 -45.5l-96 -135q-70 33 -135 33q-96 0 -153.5 -47t-61.5 -131v-674h-166z" />
<glyph unicode="s" horiz-adv-x="892" d="M55 279l166 20q18 -74 82 -114t146 -40q102 0 161.5 37t59.5 105t-46 96.5t-184 46.5q-160 18 -261 85t-101 208q4 139 103.5 215t267.5 76q152 0 250 -78t124 -217l-166 -21q-16 74 -72.5 114t-135.5 40q-96 0 -150.5 -33t-54.5 -96t63.5 -93t147.5 -38q211 -20 296 -92 t85 -213t-105.5 -222t-281.5 -81q-152 0 -258.5 77.5t-135.5 217.5z" />
<glyph unicode="t" horiz-adv-x="612" d="M31 836v161h104v277h166v-277h264v-161h-264v-560q0 -53 25.5 -92t91.5 -39h162v-161h-162q-133 0 -208 77.5t-75 214.5v560h-104z" />
<glyph unicode="u" horiz-adv-x="931" d="M84 334v663h166v-663q0 -88 58.5 -138.5t156.5 -50.5q94 0 152.5 47.5t60.5 131.5v673h166v-997h-166v82q-43 -49 -108.5 -73.5t-125.5 -24.5q-168 0 -264 94t-96 256z" />
<glyph unicode="v" horiz-adv-x="917" d="M35 997h168l254 -753l254 753h172l-342 -997h-166z" />
<glyph unicode="w" horiz-adv-x="1277" d="M53 997h170l168 -690l166 690h162l168 -688l166 688h172l-252 -997h-170l-162 643l-164 -643h-168z" />
<glyph unicode="x" horiz-adv-x="1021" d="M66 0l346 498l-344 499h200l248 -356l248 356h190l-344 -495l346 -502h-200l-250 365l-250 -365h-190z" />
<glyph unicode="y" horiz-adv-x="929" d="M86 334v663h166v-663q0 -88 57.5 -138.5t155.5 -50.5t155.5 50.5t59.5 138.5v663h166v-1009q-2 -162 -104.5 -256t-276.5 -94q-111 0 -198 45t-140 131l147 75q31 -45 80 -67.5t111 -22.5q98 0 156.5 50.5t58.5 138.5v96q-41 -55 -97.5 -77.5t-138.5 -22.5 q-152 0 -255 94t-103 256z" />
<glyph unicode="z" horiz-adv-x="954" d="M80 0l532 836h-530v161h817l-539 -835h492v-162h-772z" />
<glyph unicode="{" horiz-adv-x="620" d="M29 573v160q96 0 153 49q41 35 54 88q4 18 4 28.5v21.5q0 90 14 187t43 191.5t71 177.5t99 144l123 -111q-43 -37 -78 -105.5t-58.5 -150.5t-35.5 -169t-12 -162q0 -86 -35 -154t-88 -115q53 -47 88 -114.5t35 -153.5q0 -76 12 -163t35.5 -169t58.5 -150.5t78 -105.5 l-123 -110q-57 61 -99 144t-71 177t-43 191.5t-14 187.5v20.5t-4 28.5q-12 53 -54 88q-57 49 -153 49z" />
<glyph unicode="|" horiz-adv-x="337" d="M86 -158v1686h166v-1686h-166z" />
<glyph unicode="}" horiz-adv-x="618" d="M29 -203q43 37 77.5 105.5t58 150.5t36 169t12.5 163q0 86 35 153.5t88 114.5q-53 47 -88 115t-35 154q0 76 -12.5 162.5t-36 168.5t-58 151t-77.5 105l123 111q57 -61 99 -144t70.5 -177.5t43 -191.5t14.5 -187v-20.5t4 -29.5q12 -53 53 -88q57 -49 154 -49v-160 q-96 0 -154 -49q-41 -35 -53 -88q-4 -18 -4 -28.5v-20.5q0 -90 -14.5 -187.5t-43 -191.5t-70.5 -177t-99 -144z" />
<glyph unicode="~" horiz-adv-x="1013" d="M57 625q92 92 152 125q25 14 55.5 19t67.5 5q76 0 207 -59q45 -20 82.5 -31.5t58.5 -11.5q68 0 160 94l114 -115q-49 -49 -86 -78.5t-61 -44.5q-51 -27 -127 -26q-37 0 -90 16.5t-119 44.5q-45 18 -83 30.5t-58 12.5q-68 0 -160 -92z" />
<glyph unicode="&#xa1;" horiz-adv-x="342" d="M80 793h182v221h-182v-221zM88 -358h166v1012h-166v-1012z" />
<glyph unicode="&#xa2;" horiz-adv-x="831" d="M37 334v330q0 141 78 230t215 112v168h166v-166q121 -18 197.5 -94t99.5 -195l-166 -21q-29 117 -131 142v-684q47 16 82.5 53t48.5 90l166 -20q-25 -121 -101 -196t-196 -93v-148h-166v150q-137 23 -215 112t-78 230zM203 334q0 -66 33.5 -112t93.5 -64v682 q-59 -18 -93 -64.5t-34 -111.5v-330z" />
<glyph unicode="&#xa3;" horiz-adv-x="960" d="M45 500v166h115v239q0 121 35.5 211t102.5 150.5t159 92.5t207 34h186v-168h-184q-160 -14 -249 -103.5t-89 -247.5v-208h413v-166h-413v-332h585v-168h-753v500h-115z" />
<glyph unicode="&#xa5;" horiz-adv-x="1134" d="M31 1372h192l342 -579l344 579h193l-408 -672h271v-161h-316v-82h316v-162h-316v-295h-166v295h-278v162h278v82h-278v161h233z" />
<glyph unicode="&#xa6;" horiz-adv-x="323" d="M78 -158v774h166v-774h-166zM78 754v774h166v-774h-166z" />
<glyph unicode="&#xa8;" horiz-adv-x="673" d="M82 1151v221h180v-221h-180zM410 1151v221h180v-221h-180z" />
<glyph unicode="&#xa9;" horiz-adv-x="1611" d="M55 723q0 311 219 528q219 219 531 219q311 0 528 -219q221 -219 221 -528q0 -311 -221 -533q-217 -217 -528 -217q-307 0 -531 217q-219 222 -219 533zM225 723q0 -246 168 -420t412 -174t412 174q168 178 167 420q0 240 -167 418q-168 174 -412 174t-412 -174 t-168 -418zM367 717q0 205 118 340q61 63 144.5 97t187.5 34q80 0 149.5 -22.5t123 -65.5t89 -107.5t46.5 -148.5h-154q-8 39 -30.5 72.5t-56.5 59t-76 40t-91 14.5q-129 0 -205 -88q-78 -88 -77 -225q0 -133 79 -228q74 -88 203 -88q100 0 168 51.5t86 135.5h154 q-10 -84 -46 -147.5t-89.5 -107.5t-123 -66.5t-149.5 -22.5q-205 0 -330 131q-59 66 -89.5 149.5t-30.5 192.5z" />
<glyph unicode="&#xab;" horiz-adv-x="888" d="M45 498l461 460v-233l-230 -227l230 -230v-231zM381 498l461 460v-233l-228 -227l228 -230v-231z" />
<glyph unicode="&#xad;" horiz-adv-x="679" d="M82 418v160h514v-160h-514z" />
<glyph unicode="&#xae;" horiz-adv-x="1611" d="M55 723q0 311 219 528q219 219 531 219q311 0 528 -219q221 -219 221 -528q0 -311 -221 -533q-217 -217 -528 -217q-307 0 -531 217q-219 222 -219 533zM225 723q0 -246 168 -420t412 -174t412 174q168 178 167 420q0 240 -167 418q-168 174 -412 174t-412 -174 t-168 -418zM494 272v893h350q311 0 311 -270q0 -111 -57.5 -172t-159.5 -80q59 -90 125.5 -187.5t122.5 -183.5h-176l-236 357h-110v-357h-170zM664 786h118q104 0 153.5 19.5t49.5 95.5q0 63 -44 85t-120 22h-157v-222z" />
<glyph unicode="&#xb0;" horiz-adv-x="708" d="M61 1090v26q0 133 75 204t214 71q141 0 218 -71t77 -204v-24q0 -133 -75.5 -207t-217.5 -74q-135 0 -213 68.5t-78 210.5zM199 1092q0 -70 40 -107t113 -37q68 0 111 38t43 110v26q0 59 -44 99.5t-110 40.5t-109.5 -39t-43.5 -111v-20z" />
<glyph unicode="&#xb1;" horiz-adv-x="845" d="M43 0v162h758v-162h-758zM43 555v162h305v297h166v-297h287v-162h-287v-297h-166v297h-305z" />
<glyph unicode="&#xb2;" horiz-adv-x="589" d="M68 625v116l280 340q35 45 35 82q0 92 -90 97q-88 -2 -88 -117h-137q0 119 63.5 183.5t161.5 64.5q102 0 164.5 -60.5t62.5 -159.5q0 -86 -63 -167l-201 -240h264v-139h-452z" />
<glyph unicode="&#xb3;" horiz-adv-x="559" d="M61 848h129q0 -47 24 -77t62 -30q37 0 61.5 20.5t24.5 61.5v35q0 27 -23.5 45.5t-51.5 18.5h-64v155h64q33 0 53 23.5t22 54.5v31q0 31 -22.5 50t-63.5 17q-37 0 -59 -25.5t-24 -72.5h-132q0 113 52.5 174.5t162.5 61.5q104 0 162 -58.5t58 -144.5v-33q-2 -41 -12.5 -84 t-45.5 -72q25 -27 41.5 -63.5t16.5 -77.5v-37q0 -98 -59.5 -154.5t-160.5 -56.5q-90 0 -152.5 59.5t-62.5 178.5z" />
<glyph unicode="&#xb4;" horiz-adv-x="458" d="M27 1071l198 340h207l-223 -340h-182z" />
<glyph unicode="&#xb5;" d="M82 -551v1548h166v-663q0 -88 57 -138.5t156 -50.5q98 0 155.5 50.5t59.5 138.5v663h166v-997h-166v74q-45 -49 -107.5 -69.5t-128.5 -20.5q-59 0 -105 12t-87 35v-582h-166z" />
<glyph unicode="&#xb7;" horiz-adv-x="382" d="M84 381v229h213v-229h-213z" />
<glyph unicode="&#xb8;" horiz-adv-x="407" d="M29 -424l176 391h172l-150 -391h-198z" />
<glyph unicode="&#xb9;" horiz-adv-x="372" d="M53 1024v209l127 137h137v-745h-137v540z" />
<glyph unicode="&#xba;" horiz-adv-x="720" d="M68 889v227q0 133 74.5 204t213.5 71q141 0 218 -71t77 -204v-225q0 -133 -75.5 -207t-217.5 -74q-135 0 -212.5 69t-77.5 210zM205 891q0 -70 40 -106.5t113 -36.5q68 0 111 37.5t43 109.5v227q0 59 -41 99.5t-113 40.5q-66 0 -109.5 -39t-43.5 -111v-221z" />
<glyph unicode="&#xbb;" horiz-adv-x="899" d="M51 37v231l228 230l-228 227v233l461 -460zM387 37v231l229 230l-229 227v233l461 -460z" />
<glyph unicode="&#xbc;" horiz-adv-x="1114" d="M43 1180l192 192h111v-835h-119v663l-103 -103zM193 -2l601 1374h146l-601 -1374h-146zM529 0v102l279 725h124l-273 -711h218v152h118v-152h76v-116h-76v-138h-118v138h-348z" />
<glyph unicode="&#xbd;" horiz-adv-x="1382" d="M54 537v118l394 314q38 37 38 99v64q-2 66 -43.5 102.5t-113.5 36.5q-71 0 -113 -38q-34 -30 -40 -78l-116 40q14 74 68 123q75 69 201 69q127 0 201.5 -68t75.5 -187v-64q0 -119 -74 -187l-287 -226h361v-118h-552zM451 -2l601 1374h146l-601 -1374h-146zM787 0v102 l279 725h124l-273 -711h218v152h118v-152h76v-116h-76v-138h-118v138h-348z" />
<glyph unicode="&#xbe;" horiz-adv-x="1361" d="M51 588l117 23q10 -41 46 -66q50 -37 121 -37q85 0 125 36t42 99v69q-2 64 -42.5 100.5t-124.5 36.5h-109v114h109q83 0 117.5 36t36.5 101v36q-2 50 -44 93.5t-110 43.5q-71 0 -114 -44q-32 -34 -39 -72l-115 39q15 65 61 116q67 75 207 75q124 0 196.5 -74t73.5 -177 v-36q-1 -62 -25.5 -110.5t-62.5 -82.5q42 -33 72 -82.5t31 -112.5v-69q-1 -116 -73.5 -183.5t-211.5 -67.5q-140 0 -215 67q-56 52 -69 129zM437 -2l601 1374h146l-601 -1374h-146zM766 0v102l279 725h124l-273 -711h218v152h118v-152h76v-116h-76v-138h-118v138h-348z" />
<glyph unicode="&#xbf;" horiz-adv-x="958" d="M49 4v22q0 66 15.5 111t41 76.5t68.5 53t78 42.5q29 16 54.5 32.5t47.5 36.5q43 41 50.5 90.5t7.5 114.5v54h164v-35q0 -59 -4.5 -107.5t-14.5 -90.5t-31.5 -77t-56.5 -67q-10 -10 -29.5 -22.5t-40.5 -22.5q-27 -14 -65.5 -33t-63 -41.5t-40 -50t-15.5 -64.5v-22 q0 -102 79 -159.5t196 -57.5q113 0 175 41t87 114l155 -55q-41 -123 -145.5 -191.5t-271.5 -68.5q-213 0 -327 100.5t-114 276.5zM404 778v221h180v-221h-180z" />
<glyph unicode="&#xc0;" horiz-adv-x="1093" d="M37 0l430 1372h160l430 -1372h-176l-103 317h-463l-102 -317h-176zM244 1835h206l199 -340h-182zM369 481h356l-178 617z" />
<glyph unicode="&#xc1;" horiz-adv-x="1120" d="M49 0l430 1372h160l430 -1372h-176l-103 317h-463l-102 -317h-176zM381 481h356l-178 617zM467 1493l198 340h207l-223 -340h-182z" />
<glyph unicode="&#xc2;" horiz-adv-x="1103" d="M41 0l430 1372h160l430 -1372h-176l-103 317h-463l-102 -317h-176zM195 1457l278 340h154l277 -340h-185l-170 194l-168 -194h-186zM373 481h356l-178 617z" />
<glyph unicode="&#xc3;" horiz-adv-x="1114" d="M47 0l430 1372h160l430 -1372h-176l-103 317h-463l-102 -317h-176zM219 1651q119 119 215 119q33 0 72 -12.5t78 -37.5q29 -16 55.5 -26.5t44.5 -10.5q43 0 115 72l100 -98q-119 -121 -213 -121q-66 0 -149 47q-66 39 -101 39q-47 0 -116 -70zM379 481h356l-178 617z" />
<glyph unicode="&#xc4;" horiz-adv-x="1103" d="M41 0l430 1372h160l430 -1372h-176l-103 317h-463l-102 -317h-176zM297 1538v221h180v-221h-180zM373 481h356l-178 617zM625 1538v221h180v-221h-180z" />
<glyph unicode="&#xc6;" horiz-adv-x="1636" d="M45 2l746 1370h800v-162h-641v-432h473v-164h-473v-450h641v-162h-809v313h-376q-41 -76 -85.5 -155.5t-84.5 -157.5h-191zM494 477h288v565z" />
<glyph unicode="&#xc7;" horiz-adv-x="958" d="M61 367v641q0 88 30 158.5t85 119.5t132 76t171 27q166 0 276.5 -80t141.5 -228l-168 -18q-25 78 -89.5 120t-160.5 42q-115 0 -182.5 -56.5t-67.5 -160.5v-641q0 -104 68 -162t182 -58q96 0 161 43t89 121l168 -20q-31 -145 -141.5 -226t-276.5 -81q-190 0 -304 101 t-114 282zM260 -342l176 391h172l-149 -391h-199z" />
<glyph unicode="&#xc8;" horiz-adv-x="987" d="M84 0v1372h820v-162h-654v-434h484v-162h-484v-452h654v-162h-820zM226 1835h206l199 -340h-182z" />
<glyph unicode="&#xc9;" horiz-adv-x="987" d="M84 0v1372h820v-162h-654v-434h484v-162h-484v-452h654v-162h-820zM414 1497l198 340h207l-223 -340h-182z" />
<glyph unicode="&#xca;" horiz-adv-x="987" d="M84 0v1372h820v-162h-654v-434h484v-162h-484v-452h654v-162h-820zM135 1459l278 340h154l277 -340h-185l-170 194l-168 -194h-186z" />
<glyph unicode="&#xcb;" horiz-adv-x="987" d="M84 0v1372h820v-162h-654v-434h484v-162h-484v-452h654v-162h-820zM240 1532v221h180v-221h-180zM568 1532v221h180v-221h-180z" />
<glyph unicode="&#xcc;" horiz-adv-x="329" d="M-147 1833h206l199 -340h-182zM84 0v1372h166v-1372h-166z" />
<glyph unicode="&#xcd;" horiz-adv-x="329" d="M70 1491l198 340h207l-223 -340h-182zM84 0v1372h166v-1372h-166z" />
<glyph unicode="&#xce;" horiz-adv-x="337" d="M-182 1459l278 340h154l277 -340h-185l-170 194l-168 -194h-186zM86 0v1372h166v-1372h-166z" />
<glyph unicode="&#xcf;" horiz-adv-x="337" d="M-82 1532v221h180v-221h-180zM88 0v1372h166v-1372h-166zM246 1532v221h180v-221h-180z" />
<glyph unicode="&#xd0;" horiz-adv-x="1165" d="M66 594v147h65v631h449q238 0 378 -128t140 -349v-418q0 -221 -140.5 -349t-377.5 -128h-449v594h-65zM297 162h281q162 0 258 82t96 227v430q0 145 -96.5 227t-257.5 82h-281v-469h256v-147h-256v-432z" />
<glyph unicode="&#xd1;" horiz-adv-x="1187" d="M82 0v1372h158l698 -1036v1036h168v-1372h-160l-698 1040v-1040h-166zM268 1647q119 119 215 119q33 0 72 -12.5t78 -37.5q29 -16 55.5 -26.5t44.5 -10.5q43 0 115 72l100 -98q-119 -121 -213 -121q-66 0 -149 47q-66 39 -101 39q-47 0 -116 -70z" />
<glyph unicode="&#xd2;" horiz-adv-x="1193" d="M109 461v448q0 221 141 349t344 128q209 0 349 -128t140 -349v-448q-2 -221 -141 -349t-348 -128q-203 0 -344 128t-141 349zM274 455q0 -145 95.5 -227.5t222.5 -82.5q133 0 228 82t98 228v460q0 145 -96.5 227.5t-229.5 82.5q-127 0 -222.5 -82t-95.5 -228v-460z M279 1833h206l199 -340h-182z" />
<glyph unicode="&#xd3;" horiz-adv-x="1124" d="M74 461v448q0 221 141 349t344 128q209 0 349 -128t140 -349v-448q-2 -221 -141 -349t-348 -128q-203 0 -344 128t-141 349zM239 455q0 -145 95.5 -227.5t222.5 -82.5q133 0 228 82t98 228v460q0 145 -96.5 227.5t-229.5 82.5q-127 0 -222.5 -82t-95.5 -228v-460z M453 1493l198 340h207l-223 -340h-182z" />
<glyph unicode="&#xd4;" horiz-adv-x="1128" d="M76 461v448q0 221 141 349t344 128q209 0 349 -128t140 -349v-448q-2 -221 -141 -349t-348 -128q-203 0 -344 128t-141 349zM203 1457l278 340h154l277 -340h-185l-170 194l-168 -194h-186zM241 455q0 -145 95.5 -227.5t222.5 -82.5q133 0 228 82t98 228v460 q0 145 -96.5 227.5t-229.5 82.5q-127 0 -222.5 -82t-95.5 -228v-460z" />
<glyph unicode="&#xd5;" horiz-adv-x="1142" d="M84 461v448q0 221 141 349t344 128q209 0 349 -128t140 -349v-448q-2 -221 -141 -349t-348 -128q-203 0 -344 128t-141 349zM227 1647q119 119 215 119q33 0 72 -12.5t78 -37.5q29 -16 55.5 -26.5t44.5 -10.5q43 0 115 72l100 -98q-119 -121 -213 -121q-66 0 -149 47 q-66 39 -101 39q-47 0 -116 -70zM249 455q0 -145 95.5 -227.5t222.5 -82.5q133 0 228 82t98 228v460q0 145 -96.5 227.5t-229.5 82.5q-127 0 -222.5 -82t-95.5 -228v-460z" />
<glyph unicode="&#xd6;" horiz-adv-x="1124" d="M74 461v448q0 221 141 349t344 128q209 0 349 -128t140 -349v-448q-2 -221 -141 -349t-348 -128q-203 0 -344 128t-141 349zM239 455q0 -145 95.5 -227.5t222.5 -82.5q133 0 228 82t98 228v460q0 145 -96.5 227.5t-229.5 82.5q-127 0 -222.5 -82t-95.5 -228v-460z M311 1532v221h180v-221h-180zM639 1532v221h180v-221h-180z" />
<glyph unicode="&#xd7;" horiz-adv-x="845" d="M59 745l121 121l248 -248l242 242l116 -119l-241 -241l239 -240l-118 -121l-238 240l-246 -246l-119 121l244 246z" />
<glyph unicode="&#xd8;" horiz-adv-x="1126" d="M76 461v448q0 221 141 349t344 128q209 0 349 -128t140 -349v-448q-2 -221 -141 -349t-348 -128q-203 0 -344 128t-141 349zM100 -168l758 1733h184l-758 -1733h-184zM241 455q0 -145 95.5 -227.5t222.5 -82.5q133 0 228 82t98 228v460q0 145 -96.5 227.5t-229.5 82.5 q-127 0 -222.5 -82t-95.5 -228v-460z" />
<glyph unicode="&#xd9;" horiz-adv-x="1136" d="M82 461v911h166v-913q0 -150 95 -232t222 -82q131 0 226.5 82t97.5 232v913h166v-911q-2 -221 -141.5 -349t-346.5 -128q-203 0 -344 128t-141 349zM265 1833h206l199 -340h-182z" />
<glyph unicode="&#xda;" horiz-adv-x="1138" d="M84 461v911h166v-913q0 -150 95 -232t222 -82q131 0 226.5 82t97.5 232v913h166v-911q-2 -221 -141.5 -349t-346.5 -128q-203 0 -344 128t-141 349zM482 1493l198 340h207l-223 -340h-182z" />
<glyph unicode="&#xdb;" horiz-adv-x="1126" d="M78 461v911h166v-913q0 -150 95 -232t222 -82q131 0 226.5 82t97.5 232v913h166v-911q-2 -221 -141.5 -349t-346.5 -128q-203 0 -344 128t-141 349zM209 1457l278 340h154l277 -340h-185l-170 194l-168 -194h-186z" />
<glyph unicode="&#xdc;" horiz-adv-x="1132" d="M80 461v911h166v-913q0 -150 95 -232t222 -82q131 0 226.5 82t97.5 232v913h166v-911q-2 -221 -141.5 -349t-346.5 -128q-203 0 -344 128t-141 349zM309 1534v221h180v-221h-180zM637 1534v221h180v-221h-180z" />
<glyph unicode="&#xdd;" horiz-adv-x="1112" d="M45 1372h192l318 -579l317 579h193l-429 -745v-627h-163v627zM459 1458l198 340h207l-223 -340h-182z" />
<glyph unicode="&#xe0;" horiz-adv-x="915" d="M72 315q0 154 103 242t278 88q61 0 116.5 -18.5t96.5 -53.5v91q0 88 -57.5 138t-155.5 50q-82 0 -138.5 -40t-72.5 -114l-166 21q27 139 125 217t252 78q172 0 275 -94.5t103 -255.5v-664h-165v61q-35 -39 -94.5 -58t-118.5 -19q-174 0 -277.5 89t-103.5 242zM154 1477 h206l199 -340h-182zM237 315q0 -78 58.5 -124t157.5 -46q98 0 155.5 46t57.5 124q-4 82 -61.5 125t-151.5 43q-98 0 -157 -45t-59 -123z" />
<glyph unicode="&#xe1;" horiz-adv-x="911" d="M70 315q0 154 103 242t278 88q61 0 116.5 -18.5t96.5 -53.5v91q0 88 -57.5 138t-155.5 50q-82 0 -138.5 -40t-72.5 -114l-166 21q27 139 125 217t252 78q172 0 275 -94.5t103 -255.5v-664h-165v61q-35 -39 -94.5 -58t-118.5 -19q-174 0 -277.5 89t-103.5 242zM235 315 q0 -78 58.5 -124t157.5 -46q98 0 155.5 46t57.5 124q-4 82 -61.5 125t-151.5 43q-98 0 -157 -45t-59 -123zM344 1139l198 340h207l-223 -340h-182z" />
<glyph unicode="&#xe2;" horiz-adv-x="911" d="M72 315q0 154 103 242t278 88q61 0 116.5 -18.5t96.5 -53.5v91q0 88 -57.5 138t-155.5 50q-82 0 -138.5 -40t-72.5 -114l-166 21q27 139 125 217t252 78q172 0 275 -94.5t103 -255.5v-664h-165v61q-35 -39 -94.5 -58t-118.5 -19q-174 0 -277.5 89t-103.5 242zM100 1090 l278 340h154l277 -340h-185l-170 194l-168 -194h-186zM237 315q0 -78 58.5 -124t157.5 -46q98 0 155.5 46t57.5 124q-4 82 -61.5 125t-151.5 43q-98 0 -157 -45t-59 -123z" />
<glyph unicode="&#xe3;" horiz-adv-x="903" d="M72 315q0 154 103 242t278 88q61 0 116.5 -18.5t96.5 -53.5v91q0 88 -57.5 138t-155.5 50q-82 0 -138.5 -40t-72.5 -114l-166 21q27 139 125 217t252 78q172 0 275 -94.5t103 -255.5v-664h-165v61q-35 -39 -94.5 -58t-118.5 -19q-174 0 -277.5 89t-103.5 242zM112 1311 q119 119 215 119q33 0 72 -12.5t78 -37.5q29 -16 55.5 -26.5t44.5 -10.5q43 0 115 72l100 -98q-119 -121 -213 -121q-66 0 -149 47q-66 39 -101 39q-47 0 -116 -70zM237 315q0 -78 58.5 -124t157.5 -46q98 0 155.5 46t57.5 124q-4 82 -61.5 125t-151.5 43q-98 0 -157 -45 t-59 -123z" />
<glyph unicode="&#xe4;" horiz-adv-x="911" d="M70 315q0 154 103 242t278 88q61 0 116.5 -18.5t96.5 -53.5v91q0 88 -57.5 138t-155.5 50q-82 0 -138.5 -40t-72.5 -114l-166 21q27 139 125 217t252 78q172 0 275 -94.5t103 -255.5v-664h-165v61q-35 -39 -94.5 -58t-118.5 -19q-174 0 -277.5 89t-103.5 242zM197 1196 v221h180v-221h-180zM235 315q0 -78 58.5 -124t157.5 -46q98 0 155.5 46t57.5 124q-4 82 -61.5 125t-151.5 43q-98 0 -157 -45t-59 -123zM525 1196v221h180v-221h-180z" />
<glyph unicode="&#xe6;" horiz-adv-x="1517" d="M80 315q0 154 103 242t278 88q61 0 116.5 -18.5t96.5 -53.5v91q0 88 -57.5 138t-155.5 50q-82 0 -138.5 -40t-72.5 -114l-166 21q27 139 125 217t252 78q172 0 275 -94.5t103 -255.5v-664h-165v61q-35 -39 -94.5 -58t-118.5 -19q-174 0 -277.5 89t-103.5 242zM245 315 q0 -78 58.5 -124t157.5 -46q98 0 155.5 46t57.5 124q-4 82 -61.5 125t-151.5 43q-98 0 -157 -45t-59 -123zM676 334v330q0 162 103.5 256t275.5 94q174 0 276.5 -94.5t104.5 -255.5v-215h-594v-115q0 -88 57.5 -138.5t155.5 -50.5q82 0 138.5 40t72.5 114l166 -20 q-27 -139 -125 -217t-252 -78q-172 0 -275.5 94t-103.5 256zM842 596h428v68q-2 88 -59.5 138t-155.5 50t-155.5 -50t-57.5 -138v-68z" />
<glyph unicode="&#xe7;" horiz-adv-x="909" d="M75 334v330q0 162 103.5 256t275.5 94q154 0 252 -78t125 -217l-166 -21q-16 74 -72.5 114t-138.5 40q-98 0 -155.5 -50t-57.5 -138v-330q0 -88 57.5 -138.5t155.5 -50.5q82 0 138.5 40t72.5 114l166 -20q-27 -139 -125 -217t-252 -78q-172 0 -275.5 94t-103.5 256z M211 -391l176 391h172l-150 -391h-198z" />
<glyph unicode="&#xe8;" horiz-adv-x="909" d="M76 334v330q0 162 103.5 256t275.5 94q174 0 276.5 -94.5t104.5 -255.5v-215h-594v-115q0 -88 57.5 -138.5t155.5 -50.5q82 0 138.5 40t72.5 114l166 -20q-27 -139 -125 -217t-252 -78q-172 0 -275.5 94t-103.5 256zM140 1479h206l199 -340h-182zM242 596h428v68 q-2 88 -59.5 138t-155.5 50t-155.5 -50t-57.5 -138v-68z" />
<glyph unicode="&#xe9;" horiz-adv-x="909" d="M76 334v330q0 162 103.5 256t275.5 94q174 0 276.5 -94.5t104.5 -255.5v-215h-594v-115q0 -88 57.5 -138.5t155.5 -50.5q82 0 138.5 40t72.5 114l166 -20q-27 -139 -125 -217t-252 -78q-172 0 -275.5 94t-103.5 256zM242 596h428v68q-2 88 -59.5 138t-155.5 50 t-155.5 -50t-57.5 -138v-68zM363 1139l198 340h207l-223 -340h-182z" />
<glyph unicode="&#xea;" horiz-adv-x="923" d="M84 334v330q0 162 103.5 256t275.5 94q174 0 276.5 -94.5t104.5 -255.5v-215h-594v-115q0 -88 57.5 -138.5t155.5 -50.5q82 0 138.5 40t72.5 114l166 -20q-27 -139 -125 -217t-252 -78q-172 0 -275.5 94t-103.5 256zM107 1092l278 340h154l277 -340h-185l-170 194 l-168 -194h-186zM250 596h428v68q-2 88 -59.5 138t-155.5 50t-155.5 -50t-57.5 -138v-68z" />
<glyph unicode="&#xeb;" horiz-adv-x="917" d="M84 334v330q0 162 103.5 256t275.5 94q174 0 276.5 -94.5t104.5 -255.5v-215h-594v-115q0 -88 57.5 -138.5t155.5 -50.5q82 0 138.5 40t72.5 114l166 -20q-27 -139 -125 -217t-252 -78q-172 0 -275.5 94t-103.5 256zM205 1192v221h180v-221h-180zM250 596h428v68 q-2 88 -59.5 138t-155.5 50t-155.5 -50t-57.5 -138v-68zM533 1192v221h180v-221h-180z" />
<glyph unicode="&#xec;" horiz-adv-x="325" d="M-147 1475h206l199 -340h-182zM82 0v997h166v-997h-166z" />
<glyph unicode="&#xed;" horiz-adv-x="329" d="M76 1139l198 340h207l-223 -340h-182zM82 0v997h166v-997h-166z" />
<glyph unicode="&#xee;" horiz-adv-x="313" d="M-197 1092l279 340h154l276 -340h-184l-170 194l-168 -194h-187zM72 0v997h166v-997h-166z" />
<glyph unicode="&#xef;" horiz-adv-x="313" d="M-96 1188v221h180v-221h-180zM76 0v997h166v-997h-166zM231 1188v221h181v-221h-181z" />
<glyph unicode="&#xf1;" d="M84 0v997h166v-82q43 49 108.5 74t124.5 25q168 0 264.5 -94.5t96.5 -255.5v-664h-166v664q0 88 -58.5 138t-156.5 50q-94 0 -152.5 -47t-60.5 -131v-674h-166zM133 1311q119 119 215 119q33 0 72 -12.5t78 -37.5q29 -16 55.5 -26.5t44.5 -10.5q43 0 115 72l100 -98 q-119 -121 -213 -121q-66 0 -149 47q-66 39 -101 39q-47 0 -116 -70z" />
<glyph unicode="&#xf2;" horiz-adv-x="909" d="M76 334v330q0 162 103.5 256t275.5 94q174 0 277.5 -95.5t103.5 -254.5v-330q0 -164 -103.5 -257t-277.5 -93q-172 0 -275.5 94t-103.5 256zM138 1479h206l199 -340h-182zM242 334q0 -88 57 -138.5t156 -50.5q98 0 156.5 50.5t58.5 138.5v330q0 86 -58.5 137t-156.5 51 t-155.5 -50t-57.5 -138v-330z" />
<glyph unicode="&#xf3;" horiz-adv-x="929" d="M86 334v330q0 162 103.5 256t275.5 94q174 0 277.5 -95.5t103.5 -254.5v-330q0 -164 -103.5 -257t-277.5 -93q-172 0 -275.5 94t-103.5 256zM252 334q0 -88 57 -138.5t156 -50.5q98 0 156.5 50.5t58.5 138.5v330q0 86 -58.5 137t-156.5 51t-155.5 -50t-57.5 -138v-330z M373 1139l198 340h207l-223 -340h-182z" />
<glyph unicode="&#xf4;" d="M82 334v330q0 162 103.5 256t275.5 94q174 0 277.5 -95.5t103.5 -254.5v-330q0 -164 -103.5 -257t-277.5 -93q-172 0 -275.5 94t-103.5 256zM100 1088l278 340h154l277 -340h-185l-170 194l-168 -194h-186zM248 334q0 -88 57 -138.5t156 -50.5q98 0 156.5 50.5 t58.5 138.5v330q0 86 -58.5 137t-156.5 51t-155.5 -50t-57.5 -138v-330z" />
<glyph unicode="&#xf5;" d="M82 334v330q0 162 103.5 256t275.5 94q174 0 277.5 -95.5t103.5 -254.5v-330q0 -164 -103.5 -257t-277.5 -93q-172 0 -275.5 94t-103.5 256zM123 1305q119 119 215 119q33 0 72 -12.5t78 -37.5q29 -16 55.5 -26.5t44.5 -10.5q43 0 115 72l100 -98q-119 -121 -213 -121 q-66 0 -149 47q-66 39 -101 39q-47 0 -116 -70zM248 334q0 -88 57 -138.5t156 -50.5q98 0 156.5 50.5t58.5 138.5v330q0 86 -58.5 137t-156.5 51t-155.5 -50t-57.5 -138v-330z" />
<glyph unicode="&#xf6;" horiz-adv-x="919" d="M82 334v330q0 162 103.5 256t275.5 94q174 0 277.5 -95.5t103.5 -254.5v-330q0 -164 -103.5 -257t-277.5 -93q-172 0 -275.5 94t-103.5 256zM207 1186v221h180v-221h-180zM248 334q0 -88 57 -138.5t156 -50.5q98 0 156.5 50.5t58.5 138.5v330q0 86 -58.5 137t-156.5 51 t-155.5 -50t-57.5 -138v-330zM535 1186v221h180v-221h-180z" />
<glyph unicode="&#xf7;" horiz-adv-x="866" d="M14 418v160h838v-160h-838zM328 0v221h180v-221h-180zM328 776v221h180v-221h-180z" />
<glyph unicode="&#xf8;" horiz-adv-x="964" d="M10 -391l758 1733h184l-758 -1733h-184zM109 334v330q0 162 103.5 256t275.5 94q174 0 277.5 -95.5t103.5 -254.5v-330q0 -164 -103.5 -257t-277.5 -93q-172 0 -275.5 94t-103.5 256zM275 334q0 -88 57 -138.5t156 -50.5q98 0 156.5 50.5t58.5 138.5v330q0 86 -58.5 137 t-156.5 51t-155.5 -50t-57.5 -138v-330z" />
<glyph unicode="&#xf9;" horiz-adv-x="919" d="M82 334v663h166v-663q0 -88 58.5 -138.5t156.5 -50.5q94 0 152.5 47.5t60.5 131.5v673h166v-997h-166v82q-43 -49 -108.5 -73.5t-125.5 -24.5q-168 0 -264 94t-96 256zM154 1477h206l199 -340h-182z" />
<glyph unicode="&#xfa;" d="M84 334v663h166v-663q0 -88 58.5 -138.5t156.5 -50.5q94 0 152.5 47.5t60.5 131.5v673h166v-997h-166v82q-43 -49 -108.5 -73.5t-125.5 -24.5q-168 0 -264 94t-96 256zM367 1139l198 340h207l-223 -340h-182z" />
<glyph unicode="&#xfb;" d="M84 334v663h166v-663q0 -88 58.5 -138.5t156.5 -50.5q94 0 152.5 47.5t60.5 131.5v673h166v-997h-166v82q-43 -49 -108.5 -73.5t-125.5 -24.5q-168 0 -264 94t-96 256zM125 1090l278 340h154l277 -340h-185l-170 194l-168 -194h-186z" />
<glyph unicode="&#xfc;" horiz-adv-x="929" d="M84 334v663h166v-663q0 -88 58.5 -138.5t156.5 -50.5q94 0 152.5 47.5t60.5 131.5v673h166v-997h-166v82q-43 -49 -108.5 -73.5t-125.5 -24.5q-168 0 -264 94t-96 256zM207 1188v221h180v-221h-180zM535 1188v221h180v-221h-180z" />
<glyph unicode="&#xfd;" horiz-adv-x="923" d="M84 334v663h166v-663q0 -88 57.5 -138.5t155.5 -50.5t155.5 50.5t59.5 138.5v663h166v-1009q-2 -162 -104.5 -256t-276.5 -94q-111 0 -198 45t-140 131l147 75q31 -45 80 -67.5t111 -22.5q98 0 156.5 50.5t58.5 138.5v96q-41 -55 -97.5 -77.5t-138.5 -22.5 q-152 0 -255 94t-103 256zM369 1139l198 340h207l-223 -340h-182z" />
<glyph unicode="&#xfe;" horiz-adv-x="935" d="M88 -313v1685h166v-457q33 39 93.5 69t139.5 30q164 0 262.5 -89t98.5 -261v-330q-2 -162 -94 -256t-267 -94q-61 0 -126.5 25.5t-106.5 76.5v-399h-166zM254 334q0 -88 57.5 -138.5t155.5 -50.5t155.5 50.5t59.5 138.5v330q-2 88 -59.5 138t-155.5 50q-94 0 -154 -47 q-53 -45 -59 -123v-348z" />
<glyph unicode="&#xff;" horiz-adv-x="923" d="M84 334v663h166v-663q0 -88 57.5 -138.5t155.5 -50.5t155.5 50.5t59.5 138.5v663h166v-1009q-2 -162 -104.5 -256t-276.5 -94q-111 0 -198 45t-140 131l147 75q31 -45 80 -67.5t111 -22.5q98 0 156.5 50.5t58.5 138.5v96q-41 -55 -97.5 -77.5t-138.5 -22.5 q-152 0 -255 94t-103 256zM207 1188v221h180v-221h-180zM535 1188v221h180v-221h-180z" />
<glyph unicode="&#x152;" horiz-adv-x="1777" d="M74 461v448q0 221 141 349t344 128q209 0 349 -128t140 -349v-448q-2 -221 -141 -349t-348 -128q-203 0 -344 128t-141 349zM239 455q0 -145 95.5 -227.5t222.5 -82.5q133 0 228 82t98 228v460q0 145 -96.5 227.5t-229.5 82.5q-127 0 -222.5 -82t-95.5 -228v-460zM882 0 v1372h820v-162h-654v-434h484v-162h-484v-452h654v-162h-820z" />
<glyph unicode="&#x153;" horiz-adv-x="1531" d="M88 334v330q0 162 103.5 256t275.5 94q174 0 277.5 -95.5t103.5 -254.5v-330q0 -164 -103.5 -257t-277.5 -93q-172 0 -275.5 94t-103.5 256zM254 334q0 -88 57 -138.5t156 -50.5q98 0 156.5 50.5t58.5 138.5v330q0 86 -58.5 137t-156.5 51t-155.5 -50t-57.5 -138v-330z M684 334v330q0 162 103.5 256t275.5 94q174 0 276.5 -94.5t104.5 -255.5v-215h-594v-115q0 -88 57.5 -138.5t155.5 -50.5q82 0 138.5 40t72.5 114l166 -20q-27 -139 -125 -217t-252 -78q-172 0 -275.5 94t-103.5 256zM850 596h428v68q-2 88 -59.5 138t-155.5 50t-155.5 -50 t-57.5 -138v-68z" />
<glyph unicode="&#x178;" horiz-adv-x="1097" d="M39 1372h192l318 -579l317 579h193l-429 -745v-627h-163v627zM291 1485v221h180v-221h-180zM619 1485v221h180v-221h-180z" />
<glyph unicode="&#x2c6;" horiz-adv-x="786" d="M39 1051l278 340h154l277 -340h-185l-170 194l-168 -194h-186z" />
<glyph unicode="&#x2dc;" horiz-adv-x="788" d="M53 1311q119 119 215 119q33 0 72 -12.5t78 -37.5q29 -16 55.5 -26.5t44.5 -10.5q43 0 115 72l100 -98q-119 -121 -213 -121q-66 0 -149 47q-66 39 -101 39q-47 0 -116 -70z" />
<glyph unicode="&#x2000;" horiz-adv-x="918" />
<glyph unicode="&#x2001;" horiz-adv-x="1837" />
<glyph unicode="&#x2002;" horiz-adv-x="918" />
<glyph unicode="&#x2003;" horiz-adv-x="1837" />
<glyph unicode="&#x2004;" horiz-adv-x="612" />
<glyph unicode="&#x2005;" horiz-adv-x="459" />
<glyph unicode="&#x2006;" horiz-adv-x="306" />
<glyph unicode="&#x2007;" horiz-adv-x="306" />
<glyph unicode="&#x2008;" horiz-adv-x="229" />
<glyph unicode="&#x2009;" horiz-adv-x="367" />
<glyph unicode="&#x200a;" horiz-adv-x="102" />
<glyph unicode="&#x2010;" d="M82 418v160h760v-160h-760z" />
<glyph unicode="&#x2011;" d="M82 418v160h760v-160h-760z" />
<glyph unicode="&#x2012;" d="M82 418v160h760v-160h-760z" />
<glyph unicode="&#x2013;" horiz-adv-x="1003" d="M82 418v160h838v-160h-838z" />
<glyph unicode="&#x2014;" horiz-adv-x="1357" d="M82 418v160h1192v-160h-1192z" />
<glyph unicode="&#x2018;" horiz-adv-x="321" d="M70 1087v199q0 45 7 85t26.5 74t55.5 59.5t93 41.5v-112q-41 -18 -54.5 -40t-13.5 -48v-37h68v-222h-182z" />
<glyph unicode="&#x2019;" horiz-adv-x="317" d="M68 1079v113q41 20 54 40.5t13 41.5v45h-67v219h180v-199q0 -45 -6 -85t-25.5 -73.5t-55.5 -59t-93 -42.5z" />
<glyph unicode="&#x201a;" horiz-adv-x="319" d="M70 39h67v43q0 45 -13 67.5t-54 40.5v113q57 -16 93 -40.5t55.5 -59.5t25.5 -81t6 -104v-198h-180v219z" />
<glyph unicode="&#x201c;" horiz-adv-x="569" d="M76 1087v199q0 49 7 90t26.5 75t55.5 59.5t93 41.5v-112q-41 -18 -54.5 -41t-13.5 -47v-43h68v-222h-182zM76 1087v199q0 49 7 90t26.5 75t55.5 59.5t93 41.5v-112q-41 -18 -54.5 -41t-13.5 -47v-43h68v-222h-182zM313 1087v199q0 49 6.5 90t26 75t55 59.5t93.5 41.5 v-112q-41 -18 -54.5 -41t-13.5 -47v-43h68v-222h-181z" />
<glyph unicode="&#x201d;" horiz-adv-x="569" d="M76 1073v113q41 20 54 41.5t13 46.5v45h-67v219h182v-199q0 -47 -7 -89t-26.5 -75.5t-55.5 -59t-93 -42.5zM311 1073v113q41 20 54.5 41.5t13.5 46.5v45h-68v219h183v-199q0 -47 -7.5 -89t-27 -75.5t-55 -59t-93.5 -42.5z" />
<glyph unicode="&#x201e;" horiz-adv-x="569" d="M76 -6v221h182v-199q0 -49 -7 -90t-26.5 -74.5t-55.5 -59t-93 -42.5v113q41 18 54 40.5t13 47.5v43h-67zM311 -6v221h183v-199q0 -49 -7.5 -90t-27 -74.5t-55 -59t-93.5 -42.5v113q41 18 54.5 40.5t13.5 47.5v43h-68z" />
<glyph unicode="&#x2022;" horiz-adv-x="512" d="M57 496q0 84 57.5 141t141.5 57t141.5 -57t57.5 -141t-57.5 -141.5t-141.5 -57.5t-141.5 57.5t-57.5 141.5z" />
<glyph unicode="&#x2026;" horiz-adv-x="860" d="M82 0v221h182v-221h-182zM340 0v221h180v-221h-180zM596 0v221h180v-221h-180z" />
<glyph unicode="&#x202f;" horiz-adv-x="367" />
<glyph unicode="&#x2039;" horiz-adv-x="526" d="M33 498l459 460v-233l-228 -227l228 -230v-231z" />
<glyph unicode="&#x203a;" horiz-adv-x="544" d="M41 37v231l229 230l-229 227v233l461 -460z" />
<glyph unicode="&#x205f;" horiz-adv-x="459" />
<glyph unicode="&#x20ac;" horiz-adv-x="1398" d="M82 459v162h219v120h-219v162h219q0 227 141.5 355t374.5 128q238 0 377 -129q90 -82 123 -202l-160 -43q-23 78 -84 131q-96 82 -258 82q-158 0 -253 -82t-95 -240h375v-162h-375v-120h375v-162h-375q0 -150 95 -232t253 -82q162 0 256 82q63 53 86 135l160 -43 q-33 -125 -123 -208q-139 -127 -377 -127q-233 0 -374.5 128t-141.5 347h-219z" />
<glyph unicode="&#x2122;" horiz-adv-x="1384" d="M70 1233v125h563v-125h-219v-641h-129v641h-215zM645 592v766h121l213 -559q53 137 108.5 280.5t106.5 278.5h121v-766h-127v391q-39 -94 -79 -193.5t-77 -193.5h-108l-152 381v-385h-127z" />
<glyph unicode="&#x25fc;" horiz-adv-x="993" d="M0 0v993h993v-993h-993z" />
</font>
</defs>
</svg>
